<?xml version="1.0" encoding="utf-8"?>
<!-- Generator: Adobe Illustrator 26.5.0, SVG Export Plug-In . SVG Version: 6.00 Build 0)  -->
<svg version="1.1" id="Layer_1" xmlns="http://www.w3.org/2000/svg" xmlns:xlink="http://www.w3.org/1999/xlink" x="0px" y="0px"
	 viewBox="0 0 195 45" style="enable-background:new 0 0 195 45;" xml:space="preserve">
<style type="text/css">
	.st0{fill:#171717;}
</style>
<g>
	<path class="st0" d="M1.15,41.13v-5.6c1.02,0.48,2.09,0.72,3.22,0.72c2.05,0,3.14-1.24,3.14-3.36V17.47c0-1.64-0.07-2.83-0.22-3.51
		c1.16,0.76,2.7,1.15,4.64,1.15c1.92,0,3.4-0.39,4.45-1.15c-0.13,0.79-0.2,1.98-0.2,3.51v15.88c0,2.9-1.07,5.08-2.96,6.34
		s-4.31,1.83-7.34,1.83C4.4,41.51,2.83,41.39,1.15,41.13z M11.83,12.98c-1.4,0-2.51-0.37-3.35-1.13c-0.83-0.76-1.24-1.72-1.24-2.88
		c0-1.18,0.41-2.16,1.24-2.92s1.94-1.13,3.35-1.13s2.51,0.37,3.35,1.13c0.83,0.76,1.24,1.74,1.24,2.92c0,1.16-0.41,2.13-1.24,2.88
		C14.34,12.61,13.23,12.98,11.83,12.98z"/>
	<path class="st0" d="M21.08,30.46c-2-1.85-3.03-4.25-3.03-7.04s1.03-5.19,3.03-7.04c1.98-1.85,5.29-2.96,9.43-2.96
		c4.12,0,7.41,1.11,9.41,2.96c1.98,1.85,3.01,4.25,3.01,7.04s-1.03,5.19-3.01,7.04c-2,1.85-5.3,2.96-9.44,2.96
		C26.35,33.42,23.06,32.31,21.08,30.46z M33.71,26.64c0.79-0.83,1.2-1.9,1.2-3.22s-0.41-2.38-1.2-3.22
		c-0.81-0.83-1.89-1.26-3.23-1.26c-1.31,0-2.37,0.43-3.18,1.26c-0.81,0.85-1.22,1.92-1.22,3.22s0.41,2.37,1.22,3.2
		c0.81,0.85,1.87,1.28,3.18,1.28C31.82,27.89,32.89,27.47,33.71,26.64z"/>
	<path class="st0" d="M44.61,32.88c0.28-1.18,0.5-2.66,0.67-4.44c0.17-1.77,0.26-3.49,0.26-5.14v-7.34c0-1.64-0.09-3.36-0.26-5.16
		c-0.17-1.77-0.39-3.25-0.67-4.44h10.33c-0.55,2.61-0.83,5.8-0.83,9.59v7.34c0,3.77,0.28,6.97,0.83,9.57H44.61z"/>
	<path class="st0" d="M56.62,32.88c0.28-1.18,0.5-2.66,0.67-4.44c0.17-1.77,0.26-3.49,0.26-5.14v-7.34c0-1.64-0.09-3.36-0.26-5.16
		c-0.17-1.77-0.39-3.25-0.67-4.44h10.33c-0.55,2.61-0.83,5.8-0.83,9.59v7.34c0,3.77,0.28,6.97,0.83,9.57H56.62z"/>
	<path class="st0" d="M74.35,41.91c-2.31-0.28-4.21-0.65-5.67-1.11l-0.04-7.19c1.11,0.98,2.7,1.77,4.77,2.38
		c2.07,0.61,4.1,0.91,6.1,0.91c2.29,0,4.12-0.46,5.47-1.37c1.35-0.91,2.03-2.2,2.03-3.86c0-1.11-0.43-2.03-1.29-2.79h-0.43
		c-1.28,3.35-3.86,5.34-7.84,5.34c-2.79,0-4.92-0.78-6.39-2.31c-1.48-1.53-2.22-3.64-2.22-6.32v-2.01c0-3.14-0.31-6.08-0.92-8.82
		h10.33c-0.55,2.64-0.83,5.29-0.83,7.91v1.77c0,1.29,0.35,2.35,1.03,3.14c0.68,0.81,1.63,1.22,2.86,1.22c1.28,0,2.31-0.43,3.12-1.28
		c0.79-0.83,1.2-1.87,1.2-3.09l-0.04-1.81c0-1.29-0.06-2.75-0.18-4.36c-0.13-1.61-0.37-2.77-0.68-3.51H95.1
		c-0.31,1.31-0.54,2.48-0.67,3.53c-0.13,1.05-0.2,2.35-0.2,3.92v2.1c0,2.52,0.42,5.01,0.9,7.48c0.07,0.38,0.11,0.76,0.11,1.13
		c0,6.17-6.71,9.39-14.16,9.39C78.9,42.32,76.66,42.19,74.35,41.91z"/>
	<path class="st0" d="M131.08,41.91c-2.31-0.28-4.21-0.65-5.67-1.11l-0.04-7.19c1.11,0.98,2.7,1.77,4.77,2.38
		c2.07,0.61,4.1,0.91,6.1,0.91c2.29,0,4.12-0.46,5.47-1.37c1.35-0.91,2.03-2.2,2.03-3.86c0-1.11-0.43-2.03-1.29-2.79h-0.43
		c-1.28,3.35-3.86,5.34-7.84,5.34c-2.79,0-4.92-0.78-6.39-2.31c-1.48-1.53-2.22-3.64-2.22-6.32v-2.01c0-3.14-0.28-7.2-4.47-10.68
		h13.87c-0.55,2.64-0.83,7.15-0.83,9.78v1.77c0,1.29,0.35,2.35,1.03,3.14c0.68,0.81,1.63,1.22,2.86,1.22c1.28,0,2.31-0.43,3.12-1.28
		c0.79-0.83,1.2-1.87,1.2-3.09l-0.04-1.81c0-1.29-0.06-2.75-0.18-4.36c-0.13-1.61-0.37-2.77-0.68-3.51h10.37
		c-0.31,1.31-0.54,2.48-0.67,3.53c-0.13,1.05-0.2,2.35-0.2,3.92l0,4.7c0,1.38,0.24,2.75,0.68,4.06c0.22,0.66,0.33,1.31,0.33,1.96
		c0,6.17-6.71,9.39-14.16,9.39C135.63,42.32,133.39,42.19,131.08,41.91z"/>
	<path class="st0" d="M106.93,28.23h-0.5v0.46c0,0.81,0.06,1.52,0.17,2.09c0.11,0.57,0.33,1.28,0.67,2.11H96.93
		c0.57-2.38,0.87-5.56,0.87-9.57v-7.34c0-4.01-0.3-7.21-0.87-9.59h10.39c-0.59,2.42-0.89,5.62-0.89,9.59v2.72h0.46
		c1.24-3.23,3.99-5.27,7.98-5.27c6.02,0,8.85,4.53,8.85,10s-2.83,10-8.85,10C110.9,33.42,108.24,31.39,106.93,28.23z M114.51,26.73
		c0.85-0.87,1.28-1.96,1.28-3.31s-0.43-2.46-1.28-3.33c-0.87-0.87-2-1.29-3.42-1.29c-1.39,0-2.49,0.44-3.33,1.31
		c-0.83,0.87-1.26,1.98-1.26,3.31c0,1.28,0.43,2.35,1.28,3.25c0.83,0.91,1.94,1.37,3.31,1.37C112.51,28.04,113.64,27.6,114.51,26.73
		z"/>
	<path class="st0" d="M153.69,26.23V12.9h-3.36v-2.53h3.36V4.88l7.98-2.09v7.58h6.17v2.53h-6.17v10.27c0,1.09,0.35,1.94,1.05,2.53
		c0.7,0.61,1.57,0.91,2.59,0.91c1.05,0,2.22-0.41,2.75-0.94v6.65c-0.57,0.31-1.31,0.59-2.18,0.79c-0.89,0.2-1.74,0.31-2.55,0.31
		C156.91,33.42,153.69,31.02,153.69,26.23z"/>
	<path class="st0" d="M189.27,27.19c-1.41,0.44-2.88,0.67-4.42,0.67c-2,0-3.73-0.45-5.21-1.32c-1.5-0.86-2.32-1.88-2.46-3.04
		l0.3-0.19c2.01,1.54,4.51,2.05,7.76,2.05c4.59,0,7.35-1.5,7.72-4.51c-0.92-0.1-1.67-0.76-1.89-1.64c-0.24,0.07-0.51,0.11-0.77,0.11
		c-1.61,0-2.92-1.31-2.92-2.93c0-0.24,0.03-0.48,0.08-0.7c-0.03,0.01-0.05,0.01-0.08,0.01c-1.21,0-2.2-0.95-2.23-2.16
		c-0.94-0.12-1.98-0.2-3.12-0.2c-3.97,0-7.24,1.13-9.24,2.96c-2.01,1.85-3.1,4.28-3.1,7.04c0,3,1.16,5.41,3.5,7.24
		c2.35,1.83,5.47,2.76,9.41,2.76c1.87,0,3.75-0.17,5.64-0.48c1.88-0.33,3.32-0.76,4.35-1.27l-0.15-6.23
		C191.72,26.13,190.67,26.74,189.27,27.19z M178.84,19.35c0.76-0.54,1.64-0.82,2.64-0.82c2.23,0,3.64,0.96,3.64,2.46
		c0,0.64-0.32,1.17-0.95,1.57c-0.63,0.43-1.37,0.63-2.23,0.63c-1.98,0-3.47-0.48-4.51-1.44C177.6,20.7,178.08,19.9,178.84,19.35z"/>
</g>
</svg>
